<?xml version="1.0" encoding="UTF-8" standalone="no"?>
<!-- Created with Inkscape (http://www.inkscape.org/) -->

<svg
   xmlns:dc="http://purl.org/dc/elements/1.1/"
   xmlns:cc="http://creativecommons.org/ns#"
   xmlns:rdf="http://www.w3.org/1999/02/22-rdf-syntax-ns#"
   xmlns:svg="http://www.w3.org/2000/svg"
   xmlns="http://www.w3.org/2000/svg"
   xmlns:xlink="http://www.w3.org/1999/xlink"
   xmlns:sodipodi="http://sodipodi.sourceforge.net/DTD/sodipodi-0.dtd"
   xmlns:inkscape="http://www.inkscape.org/namespaces/inkscape"
   width="101.20441mm"
   height="69.721878mm"
   viewBox="0 0 101.20441 69.721878"
   version="1.1"
   id="svg8"
   sodipodi:docname="social graph.svg"
   inkscape:version="0.92.2 5c3e80d, 2017-08-06">
  <defs
     id="defs2">
    <marker
       inkscape:stockid="TriangleOutL"
       orient="auto"
       refY="0"
       refX="0"
       id="marker18055"
       style="overflow:visible"
       inkscape:isstock="true">
      <path
         id="path18053"
         d="M 5.77,0 -2.88,5 V -5 Z"
         style="fill:#000000;fill-opacity:1;fill-rule:evenodd;stroke:#000000;stroke-width:1.00000003pt;stroke-opacity:1"
         transform="scale(0.8)"
         inkscape:connector-curvature="0" />
    </marker>
    <marker
       inkscape:stockid="TriangleInL"
       orient="auto"
       refY="0"
       refX="0"
       id="marker17871"
       style="overflow:visible"
       inkscape:isstock="true">
      <path
         id="path17869"
         d="M 5.77,0 -2.88,5 V -5 Z"
         style="fill:#000000;fill-opacity:1;fill-rule:evenodd;stroke:#000000;stroke-width:1.00000003pt;stroke-opacity:1"
         transform="scale(-0.8)"
         inkscape:connector-curvature="0" />
    </marker>
    <marker
       inkscape:isstock="true"
       style="overflow:visible"
       id="marker15710"
       refX="0"
       refY="0"
       orient="auto"
       inkscape:stockid="TriangleOutL"
       inkscape:collect="always">
      <path
         transform="scale(0.8)"
         style="fill:#000000;fill-opacity:1;fill-rule:evenodd;stroke:#000000;stroke-width:1.00000003pt;stroke-opacity:1"
         d="M 5.77,0 -2.88,5 V -5 Z"
         id="path15708"
         inkscape:connector-curvature="0" />
    </marker>
    <marker
       inkscape:stockid="TriangleOutL"
       orient="auto"
       refY="0"
       refX="0"
       id="marker15524"
       style="overflow:visible"
       inkscape:isstock="true"
       inkscape:collect="always">
      <path
         id="path15522"
         d="M 5.77,0 -2.88,5 V -5 Z"
         style="fill:#000000;fill-opacity:1;fill-rule:evenodd;stroke:#000000;stroke-width:1.00000003pt;stroke-opacity:1"
         transform="scale(0.8)"
         inkscape:connector-curvature="0" />
    </marker>
    <marker
       inkscape:isstock="true"
       style="overflow:visible"
       id="marker15346"
       refX="0"
       refY="0"
       orient="auto"
       inkscape:stockid="TriangleInL"
       inkscape:collect="always">
      <path
         transform="scale(-0.8)"
         style="fill:#000000;fill-opacity:1;fill-rule:evenodd;stroke:#000000;stroke-width:1.00000003pt;stroke-opacity:1"
         d="M 5.77,0 -2.88,5 V -5 Z"
         id="path15344"
         inkscape:connector-curvature="0" />
    </marker>
    <marker
       inkscape:stockid="TriangleOutL"
       orient="auto"
       refY="0"
       refX="0"
       id="marker14844"
       style="overflow:visible"
       inkscape:isstock="true"
       inkscape:collect="always">
      <path
         id="path14842"
         d="M 5.77,0 -2.88,5 V -5 Z"
         style="fill:#000000;fill-opacity:1;fill-rule:evenodd;stroke:#000000;stroke-width:1.00000003pt;stroke-opacity:1"
         transform="scale(0.8)"
         inkscape:connector-curvature="0" />
    </marker>
    <marker
       inkscape:isstock="true"
       style="overflow:visible"
       id="marker14690"
       refX="0"
       refY="0"
       orient="auto"
       inkscape:stockid="TriangleInL"
       inkscape:collect="always">
      <path
         transform="scale(-0.8)"
         style="fill:#000000;fill-opacity:1;fill-rule:evenodd;stroke:#000000;stroke-width:1.00000003pt;stroke-opacity:1"
         d="M 5.77,0 -2.88,5 V -5 Z"
         id="path14688"
         inkscape:connector-curvature="0" />
    </marker>
    <marker
       inkscape:isstock="true"
       style="overflow:visible"
       id="marker14540"
       refX="0"
       refY="0"
       orient="auto"
       inkscape:stockid="TriangleOutL"
       inkscape:collect="always">
      <path
         transform="scale(0.8)"
         style="fill:#000000;fill-opacity:1;fill-rule:evenodd;stroke:#000000;stroke-width:1.00000003pt;stroke-opacity:1"
         d="M 5.77,0 -2.88,5 V -5 Z"
         id="path14538"
         inkscape:connector-curvature="0" />
    </marker>
    <marker
       inkscape:stockid="TriangleOutL"
       orient="auto"
       refY="0"
       refX="0"
       id="marker14202"
       style="overflow:visible"
       inkscape:isstock="true">
      <path
         id="path14200"
         d="M 5.77,0 -2.88,5 V -5 Z"
         style="fill:#000000;fill-opacity:1;fill-rule:evenodd;stroke:#000000;stroke-width:1.00000003pt;stroke-opacity:1"
         transform="scale(0.8)"
         inkscape:connector-curvature="0" />
    </marker>
    <marker
       inkscape:stockid="TriangleInL"
       orient="auto"
       refY="0"
       refX="0"
       id="marker14060"
       style="overflow:visible"
       inkscape:isstock="true"
       inkscape:collect="always">
      <path
         id="path14058"
         d="M 5.77,0 -2.88,5 V -5 Z"
         style="fill:#000000;fill-opacity:1;fill-rule:evenodd;stroke:#000000;stroke-width:1.00000003pt;stroke-opacity:1"
         transform="scale(-0.8)"
         inkscape:connector-curvature="0" />
    </marker>
    <marker
       inkscape:stockid="TriangleOutL"
       orient="auto"
       refY="0"
       refX="0"
       id="marker13802"
       style="overflow:visible"
       inkscape:isstock="true"
       inkscape:collect="always">
      <path
         id="path13800"
         d="M 5.77,0 -2.88,5 V -5 Z"
         style="fill:#000000;fill-opacity:1;fill-rule:evenodd;stroke:#000000;stroke-width:1.00000003pt;stroke-opacity:1"
         transform="scale(0.8)"
         inkscape:connector-curvature="0" />
    </marker>
    <marker
       inkscape:isstock="true"
       style="overflow:visible"
       id="marker13682"
       refX="0"
       refY="0"
       orient="auto"
       inkscape:stockid="TriangleOutL"
       inkscape:collect="always">
      <path
         transform="scale(0.8)"
         style="fill:#000000;fill-opacity:1;fill-rule:evenodd;stroke:#000000;stroke-width:1.00000003pt;stroke-opacity:1"
         d="M 5.77,0 -2.88,5 V -5 Z"
         id="path13680"
         inkscape:connector-curvature="0" />
    </marker>
    <marker
       inkscape:stockid="TriangleOutL"
       orient="auto"
       refY="0"
       refX="0"
       id="marker13568"
       style="overflow:visible"
       inkscape:isstock="true"
       inkscape:collect="always">
      <path
         id="path13566"
         d="M 5.77,0 -2.88,5 V -5 Z"
         style="fill:#000000;fill-opacity:1;fill-rule:evenodd;stroke:#000000;stroke-width:1.00000003pt;stroke-opacity:1"
         transform="scale(0.8)"
         inkscape:connector-curvature="0" />
    </marker>
    <marker
       inkscape:isstock="true"
       style="overflow:visible"
       id="marker7650"
       refX="0"
       refY="0"
       orient="auto"
       inkscape:stockid="TriangleOutL">
      <path
         transform="scale(0.8)"
         style="fill:#000000;fill-opacity:1;fill-rule:evenodd;stroke:#000000;stroke-width:1.00000003pt;stroke-opacity:1"
         d="M 5.77,0 -2.88,5 V -5 Z"
         id="path7648"
         inkscape:connector-curvature="0" />
    </marker>
    <marker
       inkscape:stockid="Arrow2Mend"
       orient="auto"
       refY="0"
       refX="0"
       id="Arrow2Mend"
       style="overflow:visible"
       inkscape:isstock="true">
      <path
         id="path5787"
         style="fill:#000000;fill-opacity:1;fill-rule:evenodd;stroke:#000000;stroke-width:0.625;stroke-linejoin:round;stroke-opacity:1"
         d="M 8.7185878,4.0337352 -2.2072895,0.01601326 8.7185884,-4.0017078 c -1.7454984,2.3720609 -1.7354408,5.6174519 -6e-7,8.035443 z"
         transform="scale(-0.6)"
         inkscape:connector-curvature="0" />
    </marker>
    <marker
       inkscape:stockid="Arrow2Lend"
       orient="auto"
       refY="0"
       refX="0"
       id="Arrow2Lend"
       style="overflow:visible"
       inkscape:isstock="true">
      <path
         id="path5781"
         style="fill:#000000;fill-opacity:1;fill-rule:evenodd;stroke:#000000;stroke-width:0.625;stroke-linejoin:round;stroke-opacity:1"
         d="M 8.7185878,4.0337352 -2.2072895,0.01601326 8.7185884,-4.0017078 c -1.7454984,2.3720609 -1.7354408,5.6174519 -6e-7,8.035443 z"
         transform="matrix(-1.1,0,0,-1.1,-1.1,0)"
         inkscape:connector-curvature="0" />
    </marker>
    <marker
       inkscape:stockid="Arrow1Lend"
       orient="auto"
       refY="0"
       refX="0"
       id="Arrow1Lend"
       style="overflow:visible"
       inkscape:isstock="true">
      <path
         id="path5763"
         d="M 0,0 5,-5 -12.5,0 5,5 Z"
         style="fill:#000000;fill-opacity:1;fill-rule:evenodd;stroke:#000000;stroke-width:1.00000003pt;stroke-opacity:1"
         transform="matrix(-0.8,0,0,-0.8,-10,0)"
         inkscape:connector-curvature="0" />
    </marker>
    <path
       d="M 32,0 C 49.7,0 64,14.3 64,32 64,49.7 49.7,64 32,64 14.3,64 0,49.7 0,32 0,14.3 14.3,0 32,0 Z"
       id="SVGID_3_"
       inkscape:connector-curvature="0" />
    <path
       d="M 32,0 C 49.7,0 64,14.3 64,32 64,49.7 49.7,64 32,64 14.3,64 0,49.7 0,32 0,14.3 14.3,0 32,0 Z"
       id="SVGID_3_-7"
       inkscape:connector-curvature="0" />
  </defs>
  <sodipodi:namedview
     id="base"
     pagecolor="#ffffff"
     bordercolor="#666666"
     borderopacity="1.0"
     inkscape:pageopacity="0.0"
     inkscape:pageshadow="2"
     inkscape:zoom="1.1734523"
     inkscape:cx="176.37249"
     inkscape:cy="124.88832"
     inkscape:document-units="mm"
     inkscape:current-layer="layer1"
     showgrid="false"
     inkscape:snap-global="false"
     inkscape:window-width="1680"
     inkscape:window-height="1005"
     inkscape:window-x="5"
     inkscape:window-y="0"
     inkscape:window-maximized="0" />
  <metadata
     id="metadata5">
    <rdf:RDF>
      <cc:Work
         rdf:about="">
        <dc:format>image/svg+xml</dc:format>
        <dc:type
           rdf:resource="http://purl.org/dc/dcmitype/StillImage" />
      </cc:Work>
    </rdf:RDF>
  </metadata>
  <g
     inkscape:groupmode="layer"
     id="layer3"
     inkscape:label="Layer 2"
     transform="translate(-37.176808,-4.1752514)">
    <path
       style="fill:none;stroke:#000000;stroke-width:0.25522003px;stroke-linecap:butt;stroke-linejoin:miter;stroke-opacity:1;marker-start:url(#marker15346);marker-end:url(#marker15524)"
       d="m 47.63758,29.878116 7.579407,26.267376"
       id="path15336"
       inkscape:connector-curvature="0" />
    <path
       style="fill:none;stroke:#000000;stroke-width:0.26703346px;stroke-linecap:butt;stroke-linejoin:miter;stroke-opacity:1;marker-end:url(#marker13568)"
       d="M 53.957006,18.525747 92.489612,13.048618"
       id="path13558"
       inkscape:connector-curvature="0" />
    <path
       style="fill:none;stroke:#000000;stroke-width:0.25882599px;stroke-linecap:butt;stroke-linejoin:miter;stroke-opacity:1;marker-end:url(#marker13682)"
       d="m 109.8465,16.50848 12.47832,9.546156"
       id="path13672"
       inkscape:connector-curvature="0" />
    <path
       style="fill:none;stroke:#000000;stroke-width:0.24321637px;stroke-linecap:butt;stroke-linejoin:miter;stroke-opacity:1;marker-end:url(#marker13802)"
       d="m 127.53689,55.936204 1.31903,-13.776541"
       id="path13792"
       inkscape:connector-curvature="0" />
    <path
       style="fill:none;stroke:#000000;stroke-width:0.2255273px;stroke-linecap:butt;stroke-linejoin:miter;stroke-opacity:1;marker-start:url(#marker14060);marker-end:url(#marker14540)"
       d="M 94.047284,33.335572 98.55241,21.570021"
       id="path14512"
       inkscape:connector-curvature="0" />
    <path
       style="fill:none;stroke:#000000;stroke-width:0.25808725px;stroke-linecap:butt;stroke-linejoin:miter;stroke-opacity:1;marker-start:url(#marker14690);marker-end:url(#marker14844)"
       d="M 66.368494,59.329578 82.056918,47.504931"
       id="path14680"
       inkscape:connector-curvature="0" />
    <path
       style="fill:none;stroke:#000000;stroke-width:0.2585465px;stroke-linecap:butt;stroke-linejoin:miter;stroke-opacity:1;marker-end:url(#marker15710)"
       d="M 96.80591,47.284636 118.1779,60.173928"
       id="path15700"
       inkscape:connector-curvature="0" />
    <path
       style="fill:none;stroke:#000000;stroke-width:0.25421464px;stroke-linecap:butt;stroke-linejoin:miter;stroke-opacity:1;marker-start:url(#marker17871);marker-end:url(#marker18055)"
       d="m 93.738858,17.488808 c 0,0 -29.44355,10.651701 -33.696506,38.087904"
       id="path17861"
       inkscape:connector-curvature="0" />
  </g>
  <g
     inkscape:label="Layer 1"
     inkscape:groupmode="layer"
     id="layer1"
     transform="translate(-37.176808,-4.1752514)">
    <g
       id="g11499"
       transform="matrix(0.26458333,0,0,0.26458333,121.44788,23.858739)">
      <g
         id="g11417">
        <g
           id="g11415">
          <path
             id="path11413"
             d="M 32,0 C 49.7,0 64,14.3 64,32 64,49.7 49.7,64 32,64 14.3,64 0,49.7 0,32 0,14.3 14.3,0 32,0 Z"
             inkscape:connector-curvature="0"
             style="fill:#a998f4" />
        </g>
      </g>
      <g
         id="g11497">
        <defs
           id="defs11420">
          <path
             d="M 32,0 C 49.7,0 64,14.3 64,32 64,49.7 49.7,64 32,64 14.3,64 0,49.7 0,32 0,14.3 14.3,0 32,0 Z"
             id="path11512"
             inkscape:connector-curvature="0" />
        </defs>
        <clipPath
           id="SVGID_2_">
          <use
             id="use11422"
             overflow="visible"
             xlink:href="#SVGID_3_-7"
             style="overflow:visible"
             x="0"
             y="0"
             width="100%"
             height="100%" />
        </clipPath>
        <g
           id="g11429"
           clip-path="url(#SVGID_2_)">
          <g
             id="g11427">
            <rect
               id="rect11425"
               height="21"
               width="28"
               y="36"
               x="18"
               style="fill:#ffac48" />
          </g>
        </g>
        <g
           id="g11435"
           clip-path="url(#SVGID_2_)">
          <g
             id="g11433">
            <path
               id="path11431"
               d="m 13,64 c 0,-9.3 8.5,-17 19,-17 v 0 c 10.4,0 19,7.7 19,17"
               inkscape:connector-curvature="0"
               style="fill:#ff3154" />
          </g>
        </g>
        <g
           id="g11441"
           clip-path="url(#SVGID_2_)">
          <g
             id="g11439">
            <circle
               id="circle11437"
               r="6"
               cy="50"
               cx="32"
               style="fill:#ffffff" />
          </g>
        </g>
        <g
           id="g11447"
           clip-path="url(#SVGID_2_)">
          <g
             id="g11445">
            <path
               id="path11443"
               d="m 36.1,45.3 v 4.6 C 36.1,52.2 34.2,54 32,54 30.9,54 29.8,53.5 29.1,52.8 28.4,52 27.9,51 27.9,49.9 v -4.6 z"
               inkscape:connector-curvature="0"
               style="fill:#f7be8f" />
          </g>
        </g>
        <g
           id="g11453"
           clip-path="url(#SVGID_2_)">
          <g
             id="g11451">
            <path
               id="path11449"
               d="M 36.3,48.3 C 34.9,48.8 33.5,49 32,49 30.5,49 29.1,48.8 27.7,48.3 L 26,47.5 C 22.8,45.7 20.6,42.7 20.1,39.3 20,38.7 20,38.2 20,37.7 c 0,-1 0,-3.1 0,-4.9 0,-1.7 0,-9.8 0,-9.8 h 24 c 0,0 0,8.1 0,9.8 0,1.8 0,3.8 0,4.9 0,0.5 0,1.1 -0.1,1.6 -0.2,1.5 -0.7,2.8 -1.5,4.1 -1,1.7 -2.5,3.1 -4.4,4.1 -0.6,0.3 -1.1,0.5 -1.7,0.8 z"
               inkscape:connector-curvature="0"
               style="fill:#fad3a1" />
          </g>
        </g>
        <g
           id="g11459"
           clip-path="url(#SVGID_2_)">
          <g
             id="g11457">
            <path
               id="path11455"
               d="M 26.5,32 C 27.3,32 28,32.7 28,33.5 28,34.3 27.3,35 26.5,35 25.7,35 25,34.3 25,33.5 25,32.7 25.7,32 26.5,32 Z"
               inkscape:connector-curvature="0"
               style="fill:#262647" />
          </g>
        </g>
        <g
           id="g11465"
           clip-path="url(#SVGID_2_)">
          <g
             id="g11463">
            <path
               id="path11461"
               d="M 36,33.5 C 36,32.7 36.7,32 37.5,32 38.3,32 39,32.7 39,33.5 39,34.3 38.3,35 37.5,35 36.7,35 36,34.3 36,33.5 Z"
               inkscape:connector-curvature="0"
               style="fill:#262647" />
          </g>
        </g>
        <g
           id="g11471"
           clip-path="url(#SVGID_2_)">
          <g
             id="g11469">
            <path
               id="path11467"
               d="m 33,39 c 0,0.6 -0.4,1 -1,1 -0.6,0 -1,-0.4 -1,-1 z"
               inkscape:connector-curvature="0"
               style="fill:#f7be8f" />
          </g>
        </g>
        <g
           id="g11477"
           clip-path="url(#SVGID_2_)">
          <g
             id="g11475">
            <path
               id="path11473"
               d="m 32,44.5 c -1.6,0 -3.1,-0.9 -3.9,-2.2 C 28,42 28,41.7 28.3,41.6 c 0.2,-0.1 0.5,-0.1 0.7,0.2 0.6,1.1 1.8,1.8 3,1.8 1.2,0 2.4,-0.7 3,-1.8 0.1,-0.2 0.4,-0.3 0.7,-0.2 0.2,0.1 0.3,0.4 0.2,0.7 -0.8,1.3 -2.3,2.2 -3.9,2.2 z"
               inkscape:connector-curvature="0"
               style="fill:#f4b28e" />
          </g>
        </g>
        <g
           id="g11483"
           clip-path="url(#SVGID_2_)">
          <g
             id="g11481">
            <path
               id="path11479"
               d="m 46,26 v 7 h -2 v -5.4 l -5.4,-4.2 c -1.5,4 -5.9,6.8 -10.3,6.8 -3,0 -6.4,-1.3 -8.3,-3.4 v 0.9 5.3 h -2 v -8.5 c 0,-3.1 1,-5.6 2.7,-7.5 2.6,-3 6.5,-5.1 10.3,-5 3.1,0.1 5.4,1.1 9,0 0.3,0.5 0.5,1.2 0.3,2.2 -0.1,0.8 -0.2,1 -0.3,1.5 v 0 c 3.5,2.6 6,5.5 6,10.3 z"
               inkscape:connector-curvature="0"
               style="fill:#ffac48" />
          </g>
        </g>
        <g
           id="g11489"
           clip-path="url(#SVGID_2_)">
          <g
             id="g11487">
            <path
               id="path11485"
               d="m 20,37 c -1.7,0 -3,-1.3 -3,-3 0,-0.8 0.3,-1.6 0.9,-2.1 C 18.4,31.4 19.2,31 20,31 Z"
               inkscape:connector-curvature="0"
               style="fill:#f7be8f" />
          </g>
        </g>
        <g
           id="g11495"
           clip-path="url(#SVGID_2_)">
          <g
             id="g11493">
            <path
               id="path11491"
               d="m 44,37 c 1.7,0 3,-1.3 3,-3 0,-0.8 -0.3,-1.6 -0.9,-2.1 C 45.6,31.3 44.8,31 44,31 Z"
               inkscape:connector-curvature="0"
               style="fill:#f7be8f" />
          </g>
        </g>
      </g>
    </g>
    <g
       transform="matrix(0.26458333,0,0,0.26458333,37.176808,11.869624)"
       id="g11755">
      <g
         id="g11671">
        <g
           id="g11669">
          <path
             style="fill:#a998f4"
             inkscape:connector-curvature="0"
             d="M 32,0 C 49.7,0 64,14.3 64,32 64,49.7 49.7,64 32,64 14.3,64 0,49.7 0,32 0,14.3 14.3,0 32,0 Z"
             id="path11667" />
        </g>
      </g>
      <g
         id="g11753">
        <defs
           id="defs11675">
          <path
             inkscape:connector-curvature="0"
             id="path11673"
             d="M 32,0 C 49.7,0 64,14.3 64,32 64,49.7 49.7,64 32,64 14.3,64 0,49.7 0,32 0,14.3 14.3,0 32,0 Z" />
        </defs>
        <clipPath
           id="clipPath11679">
          <use
             height="100%"
             width="100%"
             y="0"
             x="0"
             style="overflow:visible"
             xlink:href="#SVGID_3_-7"
             overflow="visible"
             id="use11677" />
        </clipPath>
        <g
           clip-path="url(#SVGID_2_)"
           id="g11685">
          <g
             id="g11683">
            <rect
               style="fill:#ffac48"
               x="18"
               y="36"
               width="28"
               height="21"
               id="rect11681" />
          </g>
        </g>
        <g
           clip-path="url(#SVGID_2_)"
           id="g11691">
          <g
             id="g11689">
            <path
               style="fill:#ff3154"
               inkscape:connector-curvature="0"
               d="m 13,64 c 0,-9.3 8.5,-17 19,-17 v 0 c 10.4,0 19,7.7 19,17"
               id="path11687" />
          </g>
        </g>
        <g
           clip-path="url(#SVGID_2_)"
           id="g11697">
          <g
             id="g11695">
            <circle
               style="fill:#ffffff"
               cx="32"
               cy="50"
               r="6"
               id="circle11693" />
          </g>
        </g>
        <g
           clip-path="url(#SVGID_2_)"
           id="g11703">
          <g
             id="g11701">
            <path
               style="fill:#f7be8f"
               inkscape:connector-curvature="0"
               d="m 36.1,45.3 v 4.6 C 36.1,52.2 34.2,54 32,54 30.9,54 29.8,53.5 29.1,52.8 28.4,52 27.9,51 27.9,49.9 v -4.6 z"
               id="path11699" />
          </g>
        </g>
        <g
           clip-path="url(#SVGID_2_)"
           id="g11709">
          <g
             id="g11707">
            <path
               style="fill:#fad3a1"
               inkscape:connector-curvature="0"
               d="M 36.3,48.3 C 34.9,48.8 33.5,49 32,49 30.5,49 29.1,48.8 27.7,48.3 L 26,47.5 C 22.8,45.7 20.6,42.7 20.1,39.3 20,38.7 20,38.2 20,37.7 c 0,-1 0,-3.1 0,-4.9 0,-1.7 0,-9.8 0,-9.8 h 24 c 0,0 0,8.1 0,9.8 0,1.8 0,3.8 0,4.9 0,0.5 0,1.1 -0.1,1.6 -0.2,1.5 -0.7,2.8 -1.5,4.1 -1,1.7 -2.5,3.1 -4.4,4.1 -0.6,0.3 -1.1,0.5 -1.7,0.8 z"
               id="path11705" />
          </g>
        </g>
        <g
           clip-path="url(#SVGID_2_)"
           id="g11715">
          <g
             id="g11713">
            <path
               style="fill:#262647"
               inkscape:connector-curvature="0"
               d="M 26.5,32 C 27.3,32 28,32.7 28,33.5 28,34.3 27.3,35 26.5,35 25.7,35 25,34.3 25,33.5 25,32.7 25.7,32 26.5,32 Z"
               id="path11711" />
          </g>
        </g>
        <g
           clip-path="url(#SVGID_2_)"
           id="g11721">
          <g
             id="g11719">
            <path
               style="fill:#262647"
               inkscape:connector-curvature="0"
               d="M 36,33.5 C 36,32.7 36.7,32 37.5,32 38.3,32 39,32.7 39,33.5 39,34.3 38.3,35 37.5,35 36.7,35 36,34.3 36,33.5 Z"
               id="path11717" />
          </g>
        </g>
        <g
           clip-path="url(#SVGID_2_)"
           id="g11727">
          <g
             id="g11725">
            <path
               style="fill:#f7be8f"
               inkscape:connector-curvature="0"
               d="m 33,39 c 0,0.6 -0.4,1 -1,1 -0.6,0 -1,-0.4 -1,-1 z"
               id="path11723" />
          </g>
        </g>
        <g
           clip-path="url(#SVGID_2_)"
           id="g11733">
          <g
             id="g11731">
            <path
               style="fill:#f4b28e"
               inkscape:connector-curvature="0"
               d="m 32,44.5 c -1.6,0 -3.1,-0.9 -3.9,-2.2 C 28,42 28,41.7 28.3,41.6 c 0.2,-0.1 0.5,-0.1 0.7,0.2 0.6,1.1 1.8,1.8 3,1.8 1.2,0 2.4,-0.7 3,-1.8 0.1,-0.2 0.4,-0.3 0.7,-0.2 0.2,0.1 0.3,0.4 0.2,0.7 -0.8,1.3 -2.3,2.2 -3.9,2.2 z"
               id="path11729" />
          </g>
        </g>
        <g
           clip-path="url(#SVGID_2_)"
           id="g11739">
          <g
             id="g11737">
            <path
               style="fill:#ffac48"
               inkscape:connector-curvature="0"
               d="m 46,26 v 7 h -2 v -5.4 l -5.4,-4.2 c -1.5,4 -5.9,6.8 -10.3,6.8 -3,0 -6.4,-1.3 -8.3,-3.4 v 0.9 5.3 h -2 v -8.5 c 0,-3.1 1,-5.6 2.7,-7.5 2.6,-3 6.5,-5.1 10.3,-5 3.1,0.1 5.4,1.1 9,0 0.3,0.5 0.5,1.2 0.3,2.2 -0.1,0.8 -0.2,1 -0.3,1.5 v 0 c 3.5,2.6 6,5.5 6,10.3 z"
               id="path11735" />
          </g>
        </g>
        <g
           clip-path="url(#SVGID_2_)"
           id="g11745">
          <g
             id="g11743">
            <path
               style="fill:#f7be8f"
               inkscape:connector-curvature="0"
               d="m 20,37 c -1.7,0 -3,-1.3 -3,-3 0,-0.8 0.3,-1.6 0.9,-2.1 C 18.4,31.4 19.2,31 20,31 Z"
               id="path11741" />
          </g>
        </g>
        <g
           clip-path="url(#SVGID_2_)"
           id="g11751">
          <g
             id="g11749">
            <path
               style="fill:#f7be8f"
               inkscape:connector-curvature="0"
               d="m 44,37 c 1.7,0 3,-1.3 3,-3 0,-0.8 -0.3,-1.6 -0.9,-2.1 C 45.6,31.3 44.8,31 44,31 Z"
               id="path11747" />
          </g>
        </g>
      </g>
    </g>
    <g
       id="g11845"
       transform="matrix(0.26458333,0,0,0.26458333,93.858083,4.1752514)">
      <g
         id="g11761">
        <g
           id="g11759">
          <path
             id="path11757"
             d="M 32,0 C 49.7,0 64,14.3 64,32 64,49.7 49.7,64 32,64 14.3,64 0,49.7 0,32 0,14.3 14.3,0 32,0 Z"
             inkscape:connector-curvature="0"
             style="fill:#a998f4" />
        </g>
      </g>
      <g
         id="g11843">
        <defs
           id="defs11765">
          <path
             d="M 32,0 C 49.7,0 64,14.3 64,32 64,49.7 49.7,64 32,64 14.3,64 0,49.7 0,32 0,14.3 14.3,0 32,0 Z"
             id="path11763"
             inkscape:connector-curvature="0" />
        </defs>
        <clipPath
           id="clipPath11769">
          <use
             id="use11767"
             overflow="visible"
             xlink:href="#SVGID_3_-7"
             style="overflow:visible"
             x="0"
             y="0"
             width="100%"
             height="100%" />
        </clipPath>
        <g
           id="g11775"
           clip-path="url(#SVGID_2_)">
          <g
             id="g11773">
            <rect
               id="rect11771"
               height="21"
               width="28"
               y="36"
               x="18"
               style="fill:#ffac48" />
          </g>
        </g>
        <g
           id="g11781"
           clip-path="url(#SVGID_2_)">
          <g
             id="g11779">
            <path
               id="path11777"
               d="m 13,64 c 0,-9.3 8.5,-17 19,-17 v 0 c 10.4,0 19,7.7 19,17"
               inkscape:connector-curvature="0"
               style="fill:#ff3154" />
          </g>
        </g>
        <g
           id="g11787"
           clip-path="url(#SVGID_2_)">
          <g
             id="g11785">
            <circle
               id="circle11783"
               r="6"
               cy="50"
               cx="32"
               style="fill:#ffffff" />
          </g>
        </g>
        <g
           id="g11793"
           clip-path="url(#SVGID_2_)">
          <g
             id="g11791">
            <path
               id="path11789"
               d="m 36.1,45.3 v 4.6 C 36.1,52.2 34.2,54 32,54 30.9,54 29.8,53.5 29.1,52.8 28.4,52 27.9,51 27.9,49.9 v -4.6 z"
               inkscape:connector-curvature="0"
               style="fill:#f7be8f" />
          </g>
        </g>
        <g
           id="g11799"
           clip-path="url(#SVGID_2_)">
          <g
             id="g11797">
            <path
               id="path11795"
               d="M 36.3,48.3 C 34.9,48.8 33.5,49 32,49 30.5,49 29.1,48.8 27.7,48.3 L 26,47.5 C 22.8,45.7 20.6,42.7 20.1,39.3 20,38.7 20,38.2 20,37.7 c 0,-1 0,-3.1 0,-4.9 0,-1.7 0,-9.8 0,-9.8 h 24 c 0,0 0,8.1 0,9.8 0,1.8 0,3.8 0,4.9 0,0.5 0,1.1 -0.1,1.6 -0.2,1.5 -0.7,2.8 -1.5,4.1 -1,1.7 -2.5,3.1 -4.4,4.1 -0.6,0.3 -1.1,0.5 -1.7,0.8 z"
               inkscape:connector-curvature="0"
               style="fill:#fad3a1" />
          </g>
        </g>
        <g
           id="g11805"
           clip-path="url(#SVGID_2_)">
          <g
             id="g11803">
            <path
               id="path11801"
               d="M 26.5,32 C 27.3,32 28,32.7 28,33.5 28,34.3 27.3,35 26.5,35 25.7,35 25,34.3 25,33.5 25,32.7 25.7,32 26.5,32 Z"
               inkscape:connector-curvature="0"
               style="fill:#262647" />
          </g>
        </g>
        <g
           id="g11811"
           clip-path="url(#SVGID_2_)">
          <g
             id="g11809">
            <path
               id="path11807"
               d="M 36,33.5 C 36,32.7 36.7,32 37.5,32 38.3,32 39,32.7 39,33.5 39,34.3 38.3,35 37.5,35 36.7,35 36,34.3 36,33.5 Z"
               inkscape:connector-curvature="0"
               style="fill:#262647" />
          </g>
        </g>
        <g
           id="g11817"
           clip-path="url(#SVGID_2_)">
          <g
             id="g11815">
            <path
               id="path11813"
               d="m 33,39 c 0,0.6 -0.4,1 -1,1 -0.6,0 -1,-0.4 -1,-1 z"
               inkscape:connector-curvature="0"
               style="fill:#f7be8f" />
          </g>
        </g>
        <g
           id="g11823"
           clip-path="url(#SVGID_2_)">
          <g
             id="g11821">
            <path
               id="path11819"
               d="m 32,44.5 c -1.6,0 -3.1,-0.9 -3.9,-2.2 C 28,42 28,41.7 28.3,41.6 c 0.2,-0.1 0.5,-0.1 0.7,0.2 0.6,1.1 1.8,1.8 3,1.8 1.2,0 2.4,-0.7 3,-1.8 0.1,-0.2 0.4,-0.3 0.7,-0.2 0.2,0.1 0.3,0.4 0.2,0.7 -0.8,1.3 -2.3,2.2 -3.9,2.2 z"
               inkscape:connector-curvature="0"
               style="fill:#f4b28e" />
          </g>
        </g>
        <g
           id="g11829"
           clip-path="url(#SVGID_2_)">
          <g
             id="g11827">
            <path
               id="path11825"
               d="m 46,26 v 7 h -2 v -5.4 l -5.4,-4.2 c -1.5,4 -5.9,6.8 -10.3,6.8 -3,0 -6.4,-1.3 -8.3,-3.4 v 0.9 5.3 h -2 v -8.5 c 0,-3.1 1,-5.6 2.7,-7.5 2.6,-3 6.5,-5.1 10.3,-5 3.1,0.1 5.4,1.1 9,0 0.3,0.5 0.5,1.2 0.3,2.2 -0.1,0.8 -0.2,1 -0.3,1.5 v 0 c 3.5,2.6 6,5.5 6,10.3 z"
               inkscape:connector-curvature="0"
               style="fill:#ffac48" />
          </g>
        </g>
        <g
           id="g11835"
           clip-path="url(#SVGID_2_)">
          <g
             id="g11833">
            <path
               id="path11831"
               d="m 20,37 c -1.7,0 -3,-1.3 -3,-3 0,-0.8 0.3,-1.6 0.9,-2.1 C 18.4,31.4 19.2,31 20,31 Z"
               inkscape:connector-curvature="0"
               style="fill:#f7be8f" />
          </g>
        </g>
        <g
           id="g11841"
           clip-path="url(#SVGID_2_)">
          <g
             id="g11839">
            <path
               id="path11837"
               d="m 44,37 c 1.7,0 3,-1.3 3,-3 0,-0.8 -0.3,-1.6 -0.9,-2.1 C 45.6,31.3 44.8,31 44,31 Z"
               inkscape:connector-curvature="0"
               style="fill:#f7be8f" />
          </g>
        </g>
      </g>
    </g>
    <g
       id="g11971"
       transform="matrix(0.26458333,0,0,0.26458333,50.078357,56.963797)">
      <g
         id="g11887">
        <g
           id="g11885">
          <path
             id="path11883"
             d="M 32,0 C 49.7,0 64,14.3 64,32 64,49.7 49.7,64 32,64 14.3,64 0,49.7 0,32 0,14.3 14.3,0 32,0 Z"
             inkscape:connector-curvature="0"
             style="fill:#a998f4" />
        </g>
      </g>
      <g
         id="g11969">
        <defs
           id="defs11891">
          <path
             d="M 32,0 C 49.7,0 64,14.3 64,32 64,49.7 49.7,64 32,64 14.3,64 0,49.7 0,32 0,14.3 14.3,0 32,0 Z"
             id="path11889"
             inkscape:connector-curvature="0" />
        </defs>
        <clipPath
           id="clipPath11895">
          <use
             id="use11893"
             overflow="visible"
             xlink:href="#SVGID_3_-7"
             style="overflow:visible"
             x="0"
             y="0"
             width="100%"
             height="100%" />
        </clipPath>
        <g
           id="g11901"
           clip-path="url(#SVGID_2_)">
          <g
             id="g11899">
            <rect
               id="rect11897"
               height="21"
               width="28"
               y="36"
               x="18"
               style="fill:#ffac48" />
          </g>
        </g>
        <g
           id="g11907"
           clip-path="url(#SVGID_2_)">
          <g
             id="g11905">
            <path
               id="path11903"
               d="m 13,64 c 0,-9.3 8.5,-17 19,-17 v 0 c 10.4,0 19,7.7 19,17"
               inkscape:connector-curvature="0"
               style="fill:#ff3154" />
          </g>
        </g>
        <g
           id="g11913"
           clip-path="url(#SVGID_2_)">
          <g
             id="g11911">
            <circle
               id="circle11909"
               r="6"
               cy="50"
               cx="32"
               style="fill:#ffffff" />
          </g>
        </g>
        <g
           id="g11919"
           clip-path="url(#SVGID_2_)">
          <g
             id="g11917">
            <path
               id="path11915"
               d="m 36.1,45.3 v 4.6 C 36.1,52.2 34.2,54 32,54 30.9,54 29.8,53.5 29.1,52.8 28.4,52 27.9,51 27.9,49.9 v -4.6 z"
               inkscape:connector-curvature="0"
               style="fill:#f7be8f" />
          </g>
        </g>
        <g
           id="g11925"
           clip-path="url(#SVGID_2_)">
          <g
             id="g11923">
            <path
               id="path11921"
               d="M 36.3,48.3 C 34.9,48.8 33.5,49 32,49 30.5,49 29.1,48.8 27.7,48.3 L 26,47.5 C 22.8,45.7 20.6,42.7 20.1,39.3 20,38.7 20,38.2 20,37.7 c 0,-1 0,-3.1 0,-4.9 0,-1.7 0,-9.8 0,-9.8 h 24 c 0,0 0,8.1 0,9.8 0,1.8 0,3.8 0,4.9 0,0.5 0,1.1 -0.1,1.6 -0.2,1.5 -0.7,2.8 -1.5,4.1 -1,1.7 -2.5,3.1 -4.4,4.1 -0.6,0.3 -1.1,0.5 -1.7,0.8 z"
               inkscape:connector-curvature="0"
               style="fill:#fad3a1" />
          </g>
        </g>
        <g
           id="g11931"
           clip-path="url(#SVGID_2_)">
          <g
             id="g11929">
            <path
               id="path11927"
               d="M 26.5,32 C 27.3,32 28,32.7 28,33.5 28,34.3 27.3,35 26.5,35 25.7,35 25,34.3 25,33.5 25,32.7 25.7,32 26.5,32 Z"
               inkscape:connector-curvature="0"
               style="fill:#262647" />
          </g>
        </g>
        <g
           id="g11937"
           clip-path="url(#SVGID_2_)">
          <g
             id="g11935">
            <path
               id="path11933"
               d="M 36,33.5 C 36,32.7 36.7,32 37.5,32 38.3,32 39,32.7 39,33.5 39,34.3 38.3,35 37.5,35 36.7,35 36,34.3 36,33.5 Z"
               inkscape:connector-curvature="0"
               style="fill:#262647" />
          </g>
        </g>
        <g
           id="g11943"
           clip-path="url(#SVGID_2_)">
          <g
             id="g11941">
            <path
               id="path11939"
               d="m 33,39 c 0,0.6 -0.4,1 -1,1 -0.6,0 -1,-0.4 -1,-1 z"
               inkscape:connector-curvature="0"
               style="fill:#f7be8f" />
          </g>
        </g>
        <g
           id="g11949"
           clip-path="url(#SVGID_2_)">
          <g
             id="g11947">
            <path
               id="path11945"
               d="m 32,44.5 c -1.6,0 -3.1,-0.9 -3.9,-2.2 C 28,42 28,41.7 28.3,41.6 c 0.2,-0.1 0.5,-0.1 0.7,0.2 0.6,1.1 1.8,1.8 3,1.8 1.2,0 2.4,-0.7 3,-1.8 0.1,-0.2 0.4,-0.3 0.7,-0.2 0.2,0.1 0.3,0.4 0.2,0.7 -0.8,1.3 -2.3,2.2 -3.9,2.2 z"
               inkscape:connector-curvature="0"
               style="fill:#f4b28e" />
          </g>
        </g>
        <g
           id="g11955"
           clip-path="url(#SVGID_2_)">
          <g
             id="g11953">
            <path
               id="path11951"
               d="m 46,26 v 7 h -2 v -5.4 l -5.4,-4.2 c -1.5,4 -5.9,6.8 -10.3,6.8 -3,0 -6.4,-1.3 -8.3,-3.4 v 0.9 5.3 h -2 v -8.5 c 0,-3.1 1,-5.6 2.7,-7.5 2.6,-3 6.5,-5.1 10.3,-5 3.1,0.1 5.4,1.1 9,0 0.3,0.5 0.5,1.2 0.3,2.2 -0.1,0.8 -0.2,1 -0.3,1.5 v 0 c 3.5,2.6 6,5.5 6,10.3 z"
               inkscape:connector-curvature="0"
               style="fill:#ffac48" />
          </g>
        </g>
        <g
           id="g11961"
           clip-path="url(#SVGID_2_)">
          <g
             id="g11959">
            <path
               id="path11957"
               d="m 20,37 c -1.7,0 -3,-1.3 -3,-3 0,-0.8 0.3,-1.6 0.9,-2.1 C 18.4,31.4 19.2,31 20,31 Z"
               inkscape:connector-curvature="0"
               style="fill:#f7be8f" />
          </g>
        </g>
        <g
           id="g11967"
           clip-path="url(#SVGID_2_)">
          <g
             id="g11965">
            <path
               id="path11963"
               d="m 44,37 c 1.7,0 3,-1.3 3,-3 0,-0.8 -0.3,-1.6 -0.9,-2.1 C 45.6,31.3 44.8,31 44,31 Z"
               inkscape:connector-curvature="0"
               style="fill:#f7be8f" />
          </g>
        </g>
      </g>
    </g>
    <g
       transform="matrix(0.26458333,0,0,0.26458333,81.836826,33.87088)"
       id="g12074">
      <g
         id="g11990">
        <g
           id="g11988">
          <path
             style="fill:#a998f4"
             inkscape:connector-curvature="0"
             d="M 32,0 C 49.7,0 64,14.3 64,32 64,49.7 49.7,64 32,64 14.3,64 0,49.7 0,32 0,14.3 14.3,0 32,0 Z"
             id="path11986" />
        </g>
      </g>
      <g
         id="g12072">
        <defs
           id="defs11994">
          <path
             inkscape:connector-curvature="0"
             id="path11992"
             d="M 32,0 C 49.7,0 64,14.3 64,32 64,49.7 49.7,64 32,64 14.3,64 0,49.7 0,32 0,14.3 14.3,0 32,0 Z" />
        </defs>
        <clipPath
           id="clipPath11998">
          <use
             height="100%"
             width="100%"
             y="0"
             x="0"
             style="overflow:visible"
             xlink:href="#SVGID_3_-7"
             overflow="visible"
             id="use11996" />
        </clipPath>
        <g
           clip-path="url(#SVGID_2_)"
           id="g12004">
          <g
             id="g12002">
            <rect
               style="fill:#ffac48"
               x="18"
               y="36"
               width="28"
               height="21"
               id="rect12000" />
          </g>
        </g>
        <g
           clip-path="url(#SVGID_2_)"
           id="g12010">
          <g
             id="g12008">
            <path
               style="fill:#ff3154"
               inkscape:connector-curvature="0"
               d="m 13,64 c 0,-9.3 8.5,-17 19,-17 v 0 c 10.4,0 19,7.7 19,17"
               id="path12006" />
          </g>
        </g>
        <g
           clip-path="url(#SVGID_2_)"
           id="g12016">
          <g
             id="g12014">
            <circle
               style="fill:#ffffff"
               cx="32"
               cy="50"
               r="6"
               id="circle12012" />
          </g>
        </g>
        <g
           clip-path="url(#SVGID_2_)"
           id="g12022">
          <g
             id="g12020">
            <path
               style="fill:#f7be8f"
               inkscape:connector-curvature="0"
               d="m 36.1,45.3 v 4.6 C 36.1,52.2 34.2,54 32,54 30.9,54 29.8,53.5 29.1,52.8 28.4,52 27.9,51 27.9,49.9 v -4.6 z"
               id="path12018" />
          </g>
        </g>
        <g
           clip-path="url(#SVGID_2_)"
           id="g12028">
          <g
             id="g12026">
            <path
               style="fill:#fad3a1"
               inkscape:connector-curvature="0"
               d="M 36.3,48.3 C 34.9,48.8 33.5,49 32,49 30.5,49 29.1,48.8 27.7,48.3 L 26,47.5 C 22.8,45.7 20.6,42.7 20.1,39.3 20,38.7 20,38.2 20,37.7 c 0,-1 0,-3.1 0,-4.9 0,-1.7 0,-9.8 0,-9.8 h 24 c 0,0 0,8.1 0,9.8 0,1.8 0,3.8 0,4.9 0,0.5 0,1.1 -0.1,1.6 -0.2,1.5 -0.7,2.8 -1.5,4.1 -1,1.7 -2.5,3.1 -4.4,4.1 -0.6,0.3 -1.1,0.5 -1.7,0.8 z"
               id="path12024" />
          </g>
        </g>
        <g
           clip-path="url(#SVGID_2_)"
           id="g12034">
          <g
             id="g12032">
            <path
               style="fill:#262647"
               inkscape:connector-curvature="0"
               d="M 26.5,32 C 27.3,32 28,32.7 28,33.5 28,34.3 27.3,35 26.5,35 25.7,35 25,34.3 25,33.5 25,32.7 25.7,32 26.5,32 Z"
               id="path12030" />
          </g>
        </g>
        <g
           clip-path="url(#SVGID_2_)"
           id="g12040">
          <g
             id="g12038">
            <path
               style="fill:#262647"
               inkscape:connector-curvature="0"
               d="M 36,33.5 C 36,32.7 36.7,32 37.5,32 38.3,32 39,32.7 39,33.5 39,34.3 38.3,35 37.5,35 36.7,35 36,34.3 36,33.5 Z"
               id="path12036" />
          </g>
        </g>
        <g
           clip-path="url(#SVGID_2_)"
           id="g12046">
          <g
             id="g12044">
            <path
               style="fill:#f7be8f"
               inkscape:connector-curvature="0"
               d="m 33,39 c 0,0.6 -0.4,1 -1,1 -0.6,0 -1,-0.4 -1,-1 z"
               id="path12042" />
          </g>
        </g>
        <g
           clip-path="url(#SVGID_2_)"
           id="g12052">
          <g
             id="g12050">
            <path
               style="fill:#f4b28e"
               inkscape:connector-curvature="0"
               d="m 32,44.5 c -1.6,0 -3.1,-0.9 -3.9,-2.2 C 28,42 28,41.7 28.3,41.6 c 0.2,-0.1 0.5,-0.1 0.7,0.2 0.6,1.1 1.8,1.8 3,1.8 1.2,0 2.4,-0.7 3,-1.8 0.1,-0.2 0.4,-0.3 0.7,-0.2 0.2,0.1 0.3,0.4 0.2,0.7 -0.8,1.3 -2.3,2.2 -3.9,2.2 z"
               id="path12048" />
          </g>
        </g>
        <g
           clip-path="url(#SVGID_2_)"
           id="g12058">
          <g
             id="g12056">
            <path
               style="fill:#ffac48"
               inkscape:connector-curvature="0"
               d="m 46,26 v 7 h -2 v -5.4 l -5.4,-4.2 c -1.5,4 -5.9,6.8 -10.3,6.8 -3,0 -6.4,-1.3 -8.3,-3.4 v 0.9 5.3 h -2 v -8.5 c 0,-3.1 1,-5.6 2.7,-7.5 2.6,-3 6.5,-5.1 10.3,-5 3.1,0.1 5.4,1.1 9,0 0.3,0.5 0.5,1.2 0.3,2.2 -0.1,0.8 -0.2,1 -0.3,1.5 v 0 c 3.5,2.6 6,5.5 6,10.3 z"
               id="path12054" />
          </g>
        </g>
        <g
           clip-path="url(#SVGID_2_)"
           id="g12064">
          <g
             id="g12062">
            <path
               style="fill:#f7be8f"
               inkscape:connector-curvature="0"
               d="m 20,37 c -1.7,0 -3,-1.3 -3,-3 0,-0.8 0.3,-1.6 0.9,-2.1 C 18.4,31.4 19.2,31 20,31 Z"
               id="path12060" />
          </g>
        </g>
        <g
           clip-path="url(#SVGID_2_)"
           id="g12070">
          <g
             id="g12068">
            <path
               style="fill:#f7be8f"
               inkscape:connector-curvature="0"
               d="m 44,37 c 1.7,0 3,-1.3 3,-3 0,-0.8 -0.3,-1.6 -0.9,-2.1 C 45.6,31.3 44.8,31 44,31 Z"
               id="path12066" />
          </g>
        </g>
      </g>
    </g>
    <g
       transform="matrix(0.26458333,0,0,0.26458333,118.69716,56.095595)"
       id="g12166">
      <g
         id="g12082">
        <g
           id="g12080">
          <path
             style="fill:#a998f4"
             inkscape:connector-curvature="0"
             d="M 32,0 C 49.7,0 64,14.3 64,32 64,49.7 49.7,64 32,64 14.3,64 0,49.7 0,32 0,14.3 14.3,0 32,0 Z"
             id="path12078" />
        </g>
      </g>
      <g
         id="g12164">
        <defs
           id="defs12086">
          <path
             inkscape:connector-curvature="0"
             id="path12084"
             d="M 32,0 C 49.7,0 64,14.3 64,32 64,49.7 49.7,64 32,64 14.3,64 0,49.7 0,32 0,14.3 14.3,0 32,0 Z" />
        </defs>
        <clipPath
           id="clipPath12090">
          <use
             height="100%"
             width="100%"
             y="0"
             x="0"
             style="overflow:visible"
             xlink:href="#SVGID_3_-7"
             overflow="visible"
             id="use12088" />
        </clipPath>
        <g
           clip-path="url(#SVGID_2_)"
           id="g12096">
          <g
             id="g12094">
            <rect
               style="fill:#ffac48"
               x="18"
               y="36"
               width="28"
               height="21"
               id="rect12092" />
          </g>
        </g>
        <g
           clip-path="url(#SVGID_2_)"
           id="g12102">
          <g
             id="g12100">
            <path
               style="fill:#ff3154"
               inkscape:connector-curvature="0"
               d="m 13,64 c 0,-9.3 8.5,-17 19,-17 v 0 c 10.4,0 19,7.7 19,17"
               id="path12098" />
          </g>
        </g>
        <g
           clip-path="url(#SVGID_2_)"
           id="g12108">
          <g
             id="g12106">
            <circle
               style="fill:#ffffff"
               cx="32"
               cy="50"
               r="6"
               id="circle12104" />
          </g>
        </g>
        <g
           clip-path="url(#SVGID_2_)"
           id="g12114">
          <g
             id="g12112">
            <path
               style="fill:#f7be8f"
               inkscape:connector-curvature="0"
               d="m 36.1,45.3 v 4.6 C 36.1,52.2 34.2,54 32,54 30.9,54 29.8,53.5 29.1,52.8 28.4,52 27.9,51 27.9,49.9 v -4.6 z"
               id="path12110" />
          </g>
        </g>
        <g
           clip-path="url(#SVGID_2_)"
           id="g12120">
          <g
             id="g12118">
            <path
               style="fill:#fad3a1"
               inkscape:connector-curvature="0"
               d="M 36.3,48.3 C 34.9,48.8 33.5,49 32,49 30.5,49 29.1,48.8 27.7,48.3 L 26,47.5 C 22.8,45.7 20.6,42.7 20.1,39.3 20,38.7 20,38.2 20,37.7 c 0,-1 0,-3.1 0,-4.9 0,-1.7 0,-9.8 0,-9.8 h 24 c 0,0 0,8.1 0,9.8 0,1.8 0,3.8 0,4.9 0,0.5 0,1.1 -0.1,1.6 -0.2,1.5 -0.7,2.8 -1.5,4.1 -1,1.7 -2.5,3.1 -4.4,4.1 -0.6,0.3 -1.1,0.5 -1.7,0.8 z"
               id="path12116" />
          </g>
        </g>
        <g
           clip-path="url(#SVGID_2_)"
           id="g12126">
          <g
             id="g12124">
            <path
               style="fill:#262647"
               inkscape:connector-curvature="0"
               d="M 26.5,32 C 27.3,32 28,32.7 28,33.5 28,34.3 27.3,35 26.5,35 25.7,35 25,34.3 25,33.5 25,32.7 25.7,32 26.5,32 Z"
               id="path12122" />
          </g>
        </g>
        <g
           clip-path="url(#SVGID_2_)"
           id="g12132">
          <g
             id="g12130">
            <path
               style="fill:#262647"
               inkscape:connector-curvature="0"
               d="M 36,33.5 C 36,32.7 36.7,32 37.5,32 38.3,32 39,32.7 39,33.5 39,34.3 38.3,35 37.5,35 36.7,35 36,34.3 36,33.5 Z"
               id="path12128" />
          </g>
        </g>
        <g
           clip-path="url(#SVGID_2_)"
           id="g12138">
          <g
             id="g12136">
            <path
               style="fill:#f7be8f"
               inkscape:connector-curvature="0"
               d="m 33,39 c 0,0.6 -0.4,1 -1,1 -0.6,0 -1,-0.4 -1,-1 z"
               id="path12134" />
          </g>
        </g>
        <g
           clip-path="url(#SVGID_2_)"
           id="g12144">
          <g
             id="g12142">
            <path
               style="fill:#f4b28e"
               inkscape:connector-curvature="0"
               d="m 32,44.5 c -1.6,0 -3.1,-0.9 -3.9,-2.2 C 28,42 28,41.7 28.3,41.6 c 0.2,-0.1 0.5,-0.1 0.7,0.2 0.6,1.1 1.8,1.8 3,1.8 1.2,0 2.4,-0.7 3,-1.8 0.1,-0.2 0.4,-0.3 0.7,-0.2 0.2,0.1 0.3,0.4 0.2,0.7 -0.8,1.3 -2.3,2.2 -3.9,2.2 z"
               id="path12140" />
          </g>
        </g>
        <g
           clip-path="url(#SVGID_2_)"
           id="g12150">
          <g
             id="g12148">
            <path
               style="fill:#ffac48"
               inkscape:connector-curvature="0"
               d="m 46,26 v 7 h -2 v -5.4 l -5.4,-4.2 c -1.5,4 -5.9,6.8 -10.3,6.8 -3,0 -6.4,-1.3 -8.3,-3.4 v 0.9 5.3 h -2 v -8.5 c 0,-3.1 1,-5.6 2.7,-7.5 2.6,-3 6.5,-5.1 10.3,-5 3.1,0.1 5.4,1.1 9,0 0.3,0.5 0.5,1.2 0.3,2.2 -0.1,0.8 -0.2,1 -0.3,1.5 v 0 c 3.5,2.6 6,5.5 6,10.3 z"
               id="path12146" />
          </g>
        </g>
        <g
           clip-path="url(#SVGID_2_)"
           id="g12156">
          <g
             id="g12154">
            <path
               style="fill:#f7be8f"
               inkscape:connector-curvature="0"
               d="m 20,37 c -1.7,0 -3,-1.3 -3,-3 0,-0.8 0.3,-1.6 0.9,-2.1 C 18.4,31.4 19.2,31 20,31 Z"
               id="path12152" />
          </g>
        </g>
        <g
           clip-path="url(#SVGID_2_)"
           id="g12162">
          <g
             id="g12160">
            <path
               style="fill:#f7be8f"
               inkscape:connector-curvature="0"
               d="m 44,37 c 1.7,0 3,-1.3 3,-3 0,-0.8 -0.3,-1.6 -0.9,-2.1 C 45.6,31.3 44.8,31 44,31 Z"
               id="path12158" />
          </g>
        </g>
      </g>
    </g>
  </g>
</svg>
